<svg width="15" height="16" viewBox="0 0 15 16" fill="none" xmlns="http://www.w3.org/2000/svg">
<path d="M3.45236 4.85145C5.88392 4.08787 8.73275 3.91272 10 3.93963C11.2673 3.96655 11.802 4.40545 12.1875 5.15539C12.8125 6.37115 12.6806 9.4033 11.5625 10.3753C10.445 11.3473 5.83134 11.4397 4.29384 10.3753C2.66947 9.25012 3.51812 6.18392 3.465 4.08735C3.49687 2.91414 2.1875 2.72388 2.1875 2.72388" stroke="white" stroke-opacity="0.62" stroke-width="1.5" stroke-linecap="round" stroke-linejoin="round"/>
<path d="M8.125 6.97899H9.85812" stroke="white" stroke-opacity="0.62" stroke-width="1.5" stroke-linecap="round" stroke-linejoin="round"/>
<path fill-rule="evenodd" clip-rule="evenodd" d="M4.53997 12.8313C4.72747 12.8313 4.87997 12.9796 4.87997 13.162C4.87997 13.345 4.72747 13.4933 4.53997 13.4933C4.35184 13.4933 4.19934 13.345 4.19934 13.162C4.19934 12.9796 4.35184 12.8313 4.53997 12.8313Z" fill="white" fill-opacity="0.62" stroke="white" stroke-opacity="0.62" stroke-width="1.5" stroke-linecap="round" stroke-linejoin="round"/>
<path fill-rule="evenodd" clip-rule="evenodd" d="M10.9971 12.8313C11.1852 12.8313 11.3377 12.9796 11.3377 13.162C11.3377 13.345 11.1852 13.4933 10.9971 13.4933C10.8096 13.4933 10.6571 13.345 10.6571 13.162C10.6571 12.9796 10.8096 12.8313 10.9971 12.8313Z" fill="white" fill-opacity="0.62" stroke="white" stroke-opacity="0.62" stroke-width="1.5" stroke-linecap="round" stroke-linejoin="round"/>
</svg>
