<svg width="27" height="27" viewBox="0 0 27 27" fill="none" xmlns="http://www.w3.org/2000/svg">
<g id="Iconly/Light/Buy">
<g id="Buy">
<path id="Stroke 1" d="M3.09386 3.65614L5.43386 4.06114L6.51723 16.9683C6.60386 18.0224 7.48473 18.8313 8.54223 18.8279H20.8149C21.824 18.8301 22.6801 18.0876 22.823 17.0886L23.8906 9.71089C24.0099 8.88626 23.4372 8.12126 22.6137 8.00201C22.5417 7.99189 5.80961 7.98626 5.80961 7.98626" stroke="#95856A" stroke-width="1.5" stroke-linecap="round" stroke-linejoin="round"/>
<path id="Stroke 3" d="M15.8907 12.1442H19.0104" stroke="#95856A" stroke-width="1.5" stroke-linecap="round" stroke-linejoin="round"/>
<path id="Stroke 5" fill-rule="evenodd" clip-rule="evenodd" d="M8.04869 22.7278C8.38732 22.7278 8.66069 23.0023 8.66069 23.3398C8.66069 23.6784 8.38732 23.9529 8.04869 23.9529C7.71007 23.9529 7.43669 23.6784 7.43669 23.3398C7.43669 23.0023 7.71007 22.7278 8.04869 22.7278Z" fill="#95856A" stroke="#95856A" stroke-width="1.5" stroke-linecap="round" stroke-linejoin="round"/>
<path id="Stroke 7" fill-rule="evenodd" clip-rule="evenodd" d="M20.739 22.7278C21.0777 22.7278 21.3522 23.0023 21.3522 23.3398C21.3522 23.6784 21.0777 23.9529 20.739 23.9529C20.4004 23.9529 20.127 23.6784 20.127 23.3398C20.127 23.0023 20.4004 22.7278 20.739 22.7278Z" fill="#95856A" stroke="#95856A" stroke-width="1.5" stroke-linecap="round" stroke-linejoin="round"/>
</g>
</g>
</svg>
