<svg width="32" height="29" viewBox="0 0 32 29" fill="none" xmlns="http://www.w3.org/2000/svg">
<path d="M9.28 0H22.72C27.84 0 32 3.77 32 8.41V20.59C32 22.8205 31.0223 24.9596 29.282 26.5368C27.5416 28.114 25.1812 29 22.72 29H9.28C4.16 29 0 25.23 0 20.59V8.41C0 6.17953 0.977712 4.04041 2.71805 2.46323C4.45839 0.886051 6.81879 0 9.28 0ZM8.96 2.9C7.43235 2.9 5.96727 3.44996 4.88707 4.4289C3.80686 5.40784 3.2 6.73557 3.2 8.12V20.88C3.2 23.7655 5.776 26.1 8.96 26.1H23.04C24.5676 26.1 26.0327 25.55 27.1129 24.5711C28.1931 23.5922 28.8 22.2644 28.8 20.88V8.12C28.8 5.2345 26.224 2.9 23.04 2.9H8.96ZM24.4 5.075C24.9304 5.075 25.4391 5.26596 25.8142 5.60587C26.1893 5.94578 26.4 6.4068 26.4 6.8875C26.4 7.36821 26.1893 7.82922 25.8142 8.16913C25.4391 8.50904 24.9304 8.7 24.4 8.7C23.8696 8.7 23.3609 8.50904 22.9858 8.16913C22.6107 7.82922 22.4 7.36821 22.4 6.8875C22.4 6.4068 22.6107 5.94578 22.9858 5.60587C23.3609 5.26596 23.8696 5.075 24.4 5.075ZM16 7.25C18.1217 7.25 20.1566 8.01384 21.6569 9.37348C23.1571 10.7331 24 12.5772 24 14.5C24 16.4228 23.1571 18.2669 21.6569 19.6265C20.1566 20.9862 18.1217 21.75 16 21.75C13.8783 21.75 11.8434 20.9862 10.3431 19.6265C8.84285 18.2669 8 16.4228 8 14.5C8 12.5772 8.84285 10.7331 10.3431 9.37348C11.8434 8.01384 13.8783 7.25 16 7.25ZM16 10.15C14.727 10.15 13.5061 10.6083 12.6059 11.4241C11.7057 12.2399 11.2 13.3463 11.2 14.5C11.2 15.6537 11.7057 16.7601 12.6059 17.5759C13.5061 18.3917 14.727 18.85 16 18.85C17.273 18.85 18.4939 18.3917 19.3941 17.5759C20.2943 16.7601 20.8 15.6537 20.8 14.5C20.8 13.3463 20.2943 12.2399 19.3941 11.4241C18.4939 10.6083 17.273 10.15 16 10.15Z" fill="white"/>
</svg>
