<svg width="30" height="36" viewBox="0 0 30 36" fill="none" xmlns="http://www.w3.org/2000/svg">
<path d="M0.666693 3.32334V32.6767C0.666693 34.915 3.13169 36.275 5.03003 35.0567L28.0934 20.38C28.4971 20.1245 28.8297 19.771 29.0602 19.3524C29.2907 18.9338 29.4115 18.4637 29.4115 17.9858C29.4115 17.508 29.2907 17.0379 29.0602 16.6193C28.8297 16.2007 28.4971 15.8472 28.0934 15.5917L5.03003 0.943335C4.60267 0.666927 4.10863 0.510987 3.60003 0.491966C3.09143 0.472945 2.58713 0.591547 2.14032 0.835261C1.69351 1.07898 1.32076 1.43877 1.0614 1.87668C0.802035 2.31459 0.665671 2.81438 0.666693 3.32334Z" fill="white"/>
</svg>
