<svg width="22" height="17" viewBox="0 0 22 17" fill="none" xmlns="http://www.w3.org/2000/svg">
<path d="M21.46 2C20.69 2.35 19.86 2.58 19 2.69C19.88 2.16 20.56 1.32 20.88 0.31C20.05 0.81 19.13 1.16 18.16 1.36C17.37 0.5 16.26 0 15 0C12.65 0 10.73 1.92 10.73 4.29C10.73 4.63 10.77 4.96 10.84 5.27C7.27998 5.09 4.10998 3.38 1.99998 0.79C1.62998 1.42 1.41998 2.16 1.41998 2.94C1.41998 4.43 2.16998 5.75 3.32998 6.5C2.61998 6.5 1.95998 6.3 1.37998 6C1.37998 6 1.37998 6 1.37998 6.03C1.37998 8.11 2.85998 9.85 4.81998 10.24C4.45998 10.34 4.07998 10.39 3.68998 10.39C3.41998 10.39 3.14998 10.36 2.88998 10.31C3.42998 12 4.99998 13.26 6.88998 13.29C5.42998 14.45 3.57998 15.13 1.55998 15.13C1.21998 15.13 0.879978 15.11 0.539978 15.07C2.43998 16.29 4.69998 17 7.11998 17C15 17 19.33 10.46 19.33 4.79C19.33 4.6 19.33 4.42 19.32 4.23C20.16 3.63 20.88 2.87 21.46 2Z" fill="white"/>
</svg>
