<svg width="38" height="33" viewBox="0 0 38 33" fill="none" xmlns="http://www.w3.org/2000/svg">
<path d="M37.0398 10.3561L37.0289 10.2713C37.0089 10.1651 36.973 10.0626 36.9222 9.96722L31.6 1.40006C31.6 1.40006 30.9213 0.560059 30.76 0.560059H8.07998L1.25918 9.67658L1.17854 9.76058L1.16762 9.80006C1.11 9.89262 1.06268 9.99121 1.0265 10.0941L0.998776 10.1755C0.920186 10.4363 0.924 10.715 1.0097 10.9735L1.04162 11.0651C1.08446 11.1735 1.13738 11.2726 1.19954 11.3608L17.6896 32.2491L17.7232 32.2969C17.808 32.4061 17.9113 32.5027 18.0373 32.5909L18.1331 32.6506C18.2272 32.7094 18.3255 32.7564 18.4683 32.8085L18.5615 32.8396C18.7228 32.8807 18.8631 32.9001 19 32.9001C19.1386 32.9001 19.2738 32.8816 19.4561 32.8345L19.5678 32.7951C19.677 32.7564 19.7753 32.7085 19.8937 32.6355L19.9677 32.5893C20.0945 32.4994 20.1961 32.4019 20.2524 32.3255L36.7635 11.4154C36.9095 11.2206 37.0047 10.9925 37.0407 10.7518L37.0533 10.6434L37.06 10.5577L37.0398 10.3561ZM28.1862 9.80006L30.5365 5.54714L32.8852 9.80006H28.1862ZM26.7767 12.3201H32.3526L23.0589 24.0927L26.7767 12.3201ZM25.3974 8.52494L22.003 3.92006H27.9418L25.3974 8.52494ZM14.5245 12.3201H23.478L19 26.4967L14.5245 12.3201ZM15.4123 9.80006L19 4.93142L22.5876 9.80006H15.4123ZM12.8856 8.14358L11.3299 3.92006H15.9978L12.8856 8.14358ZM14.9428 24.0935L5.64818 12.3201H11.2249L14.9428 24.0935ZM8.63858 5.57654L10.1951 9.80006H5.52638L8.63858 5.57654Z" fill="#95856A" fill-opacity="0.52"/>
</svg>
