<svg width="26" height="34" viewBox="0 0 26 34" fill="none" xmlns="http://www.w3.org/2000/svg">
<path d="M25.2 20.914C25.2 24.1641 23.8725 27.2812 21.5096 29.5794C19.1466 31.8777 15.9417 33.1688 12.6 33.1688C9.25828 33.1688 6.05342 31.8777 3.69046 29.5794C1.3275 27.2812 0 24.1641 0 20.914C0.00128569 18.5259 0.720215 16.1904 2.06835 14.1945C3.41649 12.1987 5.33504 10.6296 7.588 9.68038L8.0808 10.0535L10.248 11.6902C8.12657 12.1993 6.2411 13.3837 4.89151 15.0551C3.54192 16.7265 2.80571 18.7888 2.8 20.914C2.8 26.1699 7.196 30.4455 12.6 30.4455C18.004 30.4455 22.4 26.1699 22.4 20.914C22.3943 18.7888 21.6581 16.7265 20.3085 15.0551C18.9589 13.3837 17.0734 12.1993 14.952 11.6902L17.612 9.68038C19.865 10.6296 21.7835 12.1987 23.1317 14.1945C24.4798 16.1904 25.1987 18.5259 25.2 20.914ZM12.6 10.0208L19.6 4.72398L16.8 0.489258H8.4L5.6 4.72398L9.8 7.90206L12.6 10.0208Z" fill="#95856A" fill-opacity="0.52"/>
</svg>
